<svg xmlns="http://www.w3.org/2000/svg" xmlns:xlink="http://www.w3.org/1999/xlink" width="100" height="100" viewBox="0 0 100 100"><g><svg viewBox="0 0 99.999997 99.999997"><g transform="translate(-149.6453,-589.21878)"><path d="m 199.64552,591.21879 a 48.000099,48.000099 0 0 0 -48.00022,48.00022 48.000099,48.000099 0 0 0 48.00022,47.99977 48.000099,48.000099 0 0 0 47.99977,-47.99977 48.000099,48.000099 0 0 0 -47.99977,-48.00022 z m 0,5.42088 a 42.107528,42.578935 0 0 1 42.10718,42.57934 42.107528,42.578935 0 0 1 -42.10718,42.57887 42.107528,42.578935 0 0 1 -42.10763,-42.57887 42.107528,42.578935 0 0 1 42.10763,-42.57934 z" fill="#320d6d"></path></g></svg><g transform="translate(50 50) scale(0.69 0.69) rotate(0) translate(-50 -50)" style="fill:#320d6d"><svg fill="#320d6d" xmlns:dc="http://purl.org/dc/elements/1.1/" xmlns:cc="http://creativecommons.org/ns#" xmlns:rdf="http://www.w3.org/1999/02/22-rdf-syntax-ns#" xmlns:svg="http://www.w3.org/2000/svg" xmlns="http://www.w3.org/2000/svg" xmlns:sodipodi="http://sodipodi.sourceforge.net/DTD/sodipodi-0.dtd" xmlns:inkscape="http://www.inkscape.org/namespaces/inkscape" version="1.1" x="0px" y="0px" viewBox="0 0 100 100"><g transform="translate(0,-952.36218)"><g transform="translate(6.9910763,960.35057)"><path d="M 44.999999,0.24803149 C 40.641731,2.7637795 36.35433,5.6692913 32.279527,8.9999999 L 26.751968,3.8622047 C 25.370078,2.8700787 24.23622,3.011811 22.925196,3.6850393 13.074803,11.125984 6.4133857,19.665354 2.9409448,29.799212 -0.53149605,39.968504 -0.81496061,51.590551 1.523622,65.267716 c 0.1417323,0.779528 0.6023622,1.523622 1.2401575,1.984252 L 25.97244,83.480314 c 0.992126,0.673229 2.374016,0.708662 3.401575,0.03543 0.992126,-0.637795 1.523622,-1.948819 1.275591,-3.11811 -0.248032,-1.311024 -0.46063,-2.551181 -0.637796,-3.791338 l 4.003937,2.834645 c 1.913386,0.814961 4.393701,-0.496063 4.748032,-2.976378 1.807086,-6.803149 7.547244,-12.401574 12.685039,-16.405511 8.397637,-6.448819 19.771653,-11.374016 31.074802,-9.602363 1.913386,0.318898 3.826772,-1.700787 3.437008,-3.614173 L 78.909447,13.606299 C 78.625982,12.188976 77.20866,11.125984 75.755904,11.19685 71.362203,11.480315 65.303148,12.755905 58.606298,14.88189 L 49.003936,1.1338583 C 47.657479,-0.14173228 46.452755,-0.14173228 44.999999,0.24803149 z M 45.673227,6.9803149 61.263778,29.267716 c -8.185039,4.287402 -15.803149,9.673229 -21.224409,16.830709 -4.996063,6.661417 -7.866141,14.952756 -7.688976,24.732283 l -3.082677,-2.125984 c -0.141732,-6.519685 0.956693,-12.22441 3.11811,-17.326772 3.401575,-7.937007 9.46063,-14.562992 18.283464,-20.374015 1.488189,-0.992126 1.700788,-3.507874 0.354331,-4.748032 L 36.850393,13.181102 c 2.834645,-2.232283 5.811023,-4.3228344 8.822834,-6.2007871 z M 24.625984,10.169291 44.220471,28.240157 c -7.866141,5.811024 -13.925196,12.57874 -17.397637,20.728347 -3.188976,7.440944 -4.145669,15.980314 -3.11811,25.51181 L 7.3346455,62.999999 C 5.3503936,50.562992 5.7401574,40.3937 8.6811022,31.783464 11.480315,23.527559 16.688976,16.61811 24.625984,10.169291 z m 3.720472,8.822835 -1.133858,1.984252 c -1.38189,-0.531496 -2.834646,-0.779528 -4.287402,-0.637795 -4.960629,0.850393 -7.688976,5.811023 -4.960629,9.708661 1.807086,2.799212 4.783464,4.393701 6.767716,7.086614 1.240157,1.665354 -0.744095,3.188976 -2.090551,3.330709 -1.062992,0.106299 -2.551181,-0.283465 -4.074803,-1.169292 -1.240158,-0.708661 -2.267717,-2.161417 -2.551181,-3.366141 -0.283465,-1.204725 -0.212599,-1.807087 0.921259,-2.409449 0.814961,-0.46063 1.275591,-1.523622 0.992126,-2.444882 -0.885826,-1.275591 -1.665354,-1.594488 -2.940944,-1.133858 -2.622048,1.417322 -3.507874,4.464567 -2.940945,6.909448 0.46063,1.948819 1.559055,3.720473 3.153543,5.031496 l -1.098425,1.877953 3.507874,2.055118 1.133858,-1.948819 c 1.417323,0.531496 2.834646,0.779528 4.287402,0.637796 4.960629,-0.850394 7.724409,-5.811024 4.996062,-9.744095 -1.842519,-2.763779 -4.783464,-4.358267 -6.803149,-7.051181 -1.204724,-1.665354 0.779528,-3.188976 2.090551,-3.330708 1.062992,-0.1063 2.551181,0.283464 4.110236,1.169291 1.204725,0.708661 2.267717,2.125984 2.551181,3.330709 0.283465,1.204724 0.177166,1.842519 -0.92126,2.444881 -0.992126,0.46063 -1.452755,1.84252 -0.921259,2.799213 0.496063,0.992126 1.913385,1.346457 2.834645,0.779528 2.657481,-1.452756 3.543307,-4.464567 2.976378,-6.909449 -0.46063,-1.948819 -1.594488,-3.720473 -3.153543,-5.031496 l 1.098425,-1.913386 z" style="" fill="#320d6d" fill-opacity="1" fill-rule="nonzero" stroke="none"></path></g></g></svg></g></g></svg>